<?xml version="1.0" encoding="UTF-8"?>
<svg version="1.1" viewBox="0 0 1568 1544" width="392" height="386" xmlns="http://www.w3.org/2000/svg">
<path transform="translate(612,382)" d="m0 0h17l17 2 19 5 20 8 21 10 17 10 21 13 17 13 14 11 13 11 11 9 11 10 8 7 11 9 9-5 14-10 20-12 21-12 19-9 19-10 15-8 24-11 30-12 21-7 32-7 15-2h31l16 3 16 8 10 8 9 10 7 14 5 17 1 6v17l-5 23-7 21-9 20-11 21-10 16-10 14-12 17-6 12 24 1 25 3 24 5 14 5 15 9 9 10 8 15 6 8 5 13 1 7v20l-3 25-1 2 11-1 5-10 10-25 11-28 8-18 8-9 5-2h23l16 3 13 5 8 7 10 14 6 9 2 5v90l9 10 3 8-1 10-7 8-5 4-2 9-2 62-2 12-5 10-5 5-9 2h-11l-20-3-10-5-6-7-6-11-7-9h-4l-4 6-5 6-8 5-4 1h-15l-16-4-10-5-6-1-3 1-24-1-18-4-10-9-6-10-6-1-2 4-6 7-6 3h-13l-14-1-16-6-5-6-3-7-9-9-3-12 2-26 3-20 4-30-10 4-4 1 1 4-4 56-2 20v10l3 7 2 12v24l4 4 13 4 8 7 2 4 2 15 3 7 5-3 9-8 10-4h14l10 3 6 1 7-6 9-4 11-2 12 1 5 5 3 17 5 12v9l-5 10-7 6-11 4-13 1h-13l-10 4-7 2-9 1h-10l-8-2-8 4-11 3h-12l-6-3-9-10-4-1-2 2-3 12-4 3-6 3-6 7-8 4-15 5-13 2h-13l-15-2-18-5-13-5-13-2-18-4-5-1-4 2-22 4 2 4 14 10 6 7 3 9v26l-3 16-7 17-6 10-9 10-10 6-10 4-19 4h-16l-25-5-16-5-13-5-23-11-14-8-29-17-19-13-26-22-14-12-10-9-8-7-12-12-3-2-6 1-33 14-22 10-29 11-25 9-20 6-54 13-22 4-12 1h-32l-15-3-14-5-13-7-12-11-6-9-5-12-3-13v-26l4-16 6-17 7-19 4-6 11-11-1-4-8-10-11-4-7-8-5-15-3-18-8-40-2-12-5-5-10-7-4-8 1-10 8-12-1-12-7-36-5-28v-13l2-8 5-5 6-4 16-4 6-1h8l8 4 9 8h2l8-12 9-8 13-5 8-2h20l8 5 8 8 6 5 4 9v9l-4 16-9 31-4 17 1 7 9 16 11 15 13 18 9 13 6 7 3 1-3-36-5-36-7-46-6-36-3-26-7-21-1-16v-34l3-19 6-17 6-11 7-9 10-8 14-7 9-2h32l16 3 11 4 7 5 6 10 8 19 12 29 10 25 5 19v3l26 1h3l-9-27-10-36-8-37-3-25-1-25 2-18 6-23 8-16 8-10h2v-2l8-6 12-6 7-2zm456 49-17 2-28 6-36 12-37 14-67 31-19 10-19 9-3 1 2 5 12 12 11 14 8 8 7 8 12 16 8 13 4 11 10 2 15 1 10 3 7 10 8 15 1 9-5 19 7 9 9 7 5 2 3-8 3-28 4-20 4-6 7-5h26l18 2 6-7 8-12 9-11 14-17 14-18 10-14 11-18 6-12 8-19 4-14 1-6v-10l-5-10-9-8-12-5-10-2-10-1zm-365 116-10 4-5 4-7 11-4 12-2 14v18l1 3 10-3 15-5 2-1 1-1 2 2 28 1 7 3 6 5 6 7 9 5 5 6 6 15 9 42 6 30h4l11-10 4-3 1-6 2-56 2-20 2-10 2-5-1-5-10-9-8-7-13-11-19-11-6 1-11 6-17 12-14 8-2 1-1-6 9-9 7-8 5-4 1 1-3 4v2l5-1 11-8 2-5-17-10-12-3zm21 30m353 63-14 10-3 11-3 36-2 21v8l3 1 10-4 3-4 10-74v-5zm-428 83-5 18-5 13 1 10 6 14 2 4h4l3-22 2-21v-15l-1-1zm145 16 1 13 5 25 4 1 2-21v-8l-7-8zm415 37-4 4-1 4v20h4l5-10 3-9v-8l-1-1zm-480 70-4 9-8 10-7 4-4 1h-30l-6-3h-7l-7 3-26 4h-12l-9-2-5-5-6-7h-6l-4 6-2 10 5 5 13 12 10 11 7 8 11 11 5 4 6-1 10-5 18-12 22-14 12-9 13-10 10-7 5-6 4-4v-2l3-1-1-4-6-4zm-282 36-2 1-3 5-6 7-7 3-25 6-1 5v9l6 25 4 18 2 3 8-1 47-12 17-8-1 9-1 2-13-1-17 4-30 8-2 2 12 6 19 7 17 1-2 9h-5l-7-6-9-4-19-7-5-1 4 7 15 16 5 3 5 2 1 4-5 5h-4l-3-9-7-9-11-11-4-3-3 1 6 22 5 7 1 4h-11l3-9-3-17-2-9-3-6-6-1-19 4-10 4-5 4h-3l-1-2v-7l6 1h10l17-5 3-1v-2l-14-6-5-1-2 1h-8l2-9 3-1 4 2 3 5 9 4h4l-1-4-7-8-7-7-5-6-8-4-1-4 1-3 7-1 3 9 7 8 8 7 7 8 3 3 2-1-7-30-2-11 1-3-9-3-1-5-13-5-11-7-5-2-2 2-3 11-4 6-7 6-2 1-1 3-5 1-1 3 2 2-12 22-9 14-8 19-5 17-1 6v12l3 7 8 6 11 5 16 3h24l14-2 28-7 11-3 23-4 16-8 18-7 15-5 26-12 33-15 6-4 2-4-5-10-16-21-20-26-12-24-10 2-17 4h-18l-6-3-6-6zm325 23-14 8-17 12-7 8 5 5 15 4 5 2h5l1-4 23 3 13 4 5 3 7-1 4-3-2-5-11-9-15-14-10-10-5-3z" fill="#0D2440"/>
<path transform="translate(884,849)" d="m0 0 4 1 8 9 5 5 6 4 11 3 16 1h14l11-2 8-7 5-7 4 4 5 9 6 5 8 3 8 1h16l10-2 6-4 7-10 2 4 3 7 2 12v24l4 4 13 4 8 7 2 4 2 15 3 7 5-3 9-8 10-4h14l10 3 6 1 7-6 9-4 11-2 12 1 5 5 3 17 5 12v9l-5 10-7 6-11 4-13 1h-13l-10 4-7 2-9 1h-10l-8-2-8 4-11 3h-12l-6-3-9-10-4-1-2 2-3 12-4 3-6 3-6 7-8 4-15 5-13 2h-13l-15-2-18-5-13-5-13-2-18-4-5-1-4 2-22 4 2 4 14 10 6 7 3 9v26l-3 16-7 17-6 10-9 10-10 6-10 4-19 4h-16l-25-5-16-5-13-5-23-11-14-8-29-17-19-13-26-22-14-12-10-9-8-7-12-12-3-2-6 1-33 14-22 10-29 11-25 9-20 6-54 13-22 4-12 1h-32l-15-3-14-5-13-7-12-11-6-9-5-12-3-13v-26l4-16 6-17 7-19 4-6 11-11 1-3h13l19-2v2h-2v3l2 2-12 22-9 14-8 19-5 17-1 6v12l3 7 9 6 12 5 13 2h24l14-2 28-7 11-3 23-4 16-8 18-7 15-5 26-12 33-15 6-4 1-3-5-10-16-21-20-26-8-16-3-7-2-1 2-5 5-10 2-6 12 6 6 8 6 4 4 1h12l19-2 9-3 5-3 5 5 13 12 7 7 8 10 13 13 5 4 6-1 10-5 18-12 22-14 12-9 13-10 10-7 4-5 5-6 2-1 2-3 7 9 7 5 7 2h20l16-3 10-5 4-5 2-5 4 1 5 8 5 6 10 2 24 1 10-3 5-4zm-112 56-14 8-17 12-7 8 5 5 15 4 5 2h5l1-4 23 3 13 4 5 3 7-1 4-3-2-5-11-9-15-14-10-10-5-3z" fill="#E9BDC9"/>
<path transform="translate(612,382)" d="m0 0h17l17 2 19 5 20 8 21 10 17 10 21 13 17 13 14 11 13 11 11 9 11 10 8 7 11 9 9-5 14-10 20-12 21-12 19-9 19-10 15-8 24-11 30-12 21-7 32-7 15-2h31l16 3 16 8 10 8 9 10 7 14 5 17 1 6v17l-5 23-7 21-9 20-11 21-10 16-10 14-12 17-6 12 3 1-6 2-6 10-2 6h-5l-13 9h-4l-3-10-3-5-8-5-4-9-9-6 3-1 4-2 11-16 9-11 14-17 14-18 10-14 11-18 6-12 8-19 4-14 1-6v-10l-5-10-8-7-12-5-10-2-10-1h-15l-17 2-28 6-36 12-37 14-67 31-19 10-19 9h-3l4 6 11 11 11 14 8 8 7 8 12 16 8 13 3 11-16 4-8 6-5 8-5-5-6-8-5-3-12-2h-19l-12 3h-3l-4-5-11-9-12-11-14-9-9-5-6 1-11 6-17 12-14 8h-3l-1-6 9-9 7-8 6-5 3 1-5 7 10-5 6-5 2-4-5-2-12-7-12-3h-19l-10 4-5 5-6 9-4 12-2 14v21l2 1-5 9-5 32-9 68-1 5-2-4-7-1-1 4-4-43-3-14-5-12-8-12-9-6-9-10-13-8-14-4-6-1 3-1-9-27-10-36-8-37-3-25-1-25 2-18 6-23 8-16 8-10h2v-2l8-6 12-6 7-2z" fill="#E9BDC9"/>
<path transform="translate(1051,915)" d="m0 0h10l8 4 6 7 1 2 2 15 3 7 5-3 9-8 10-4h14l10 3 6 1 7-6 9-4 11-2 12 1 5 5 3 17 5 12v9l-5 10-7 6-11 4-13 1h-13l-10 4-7 2-9 1h-10l-8-2-8 4-11 3h-12l-6-3-9-10-4-1-2 2-3 12-4 3-6 3-6 7-8 4-15 5-13 2h-13l-15-2-18-5-13-5-13-2-18-4-5-1-4 2-13 2h-11l-14-4-7 1-5 2h-11l-12-3-10-5-5 1-5 2-6 1h-8l-12-3-10-5-5 1-7 2h-15l-10-3-6-3-6-5-2-1-2 6-5 1-39-6-11-4-10-10-4-9-1-6v-9l3-10 6-8 11-7 7-2h9l22 3 19 3 2 1 2 6h9l17-2 21 6 1-4 17 1 17 4 7 4 7-1 12-2 12 1 10 3 2 4 6 1 8-5 5-2h21l13 4 16-4h14l9 2 4 3h6l10-5 8-2h8l10 2 10 5 4-6 5-1 28-2 6-1 1-17 3-5z" fill="#0D2440"/>
<path transform="translate(1099,636)" d="m0 0h13l37 5 21 6 10 6 9 8 6 10 2 9v12l-2 20-6 36-4 9-10 12-2 4v21l7 61v10l-1 2h-17l-18-3-3-4-3-19-5-48-3-11-4-2h-6l-4 4-3 12-7 50-3 11h-11l-15-2-8-3-1-2v-9l11-79v-7l-11-9v-6l3-3 11-4 3-15 10-68 3-13z" fill="#AEC4F9"/>
<path transform="translate(549,631)" d="m0 0h22l12 2 12 6 5 4 8 11 4 13 4 39v26l-8 18v8l3 12 11 30 10 27 3 11v6l-8 2-10 1h-17l-5-4-5-12-16-47-6-12-6-1-6 3-2 6v9l5 50v8l-1 4-6 2-23 2-5-2-2-4-5-48-14-142v-22l11-3 18-2z" fill="#AEC4F9"/>
<path transform="translate(444,498)" d="m0 0h32l16 3 11 4 7 5 6 10 8 19 12 29 10 25 5 19v3l-15 2-25 3-13 4-6 4-3 6-1 4v21l4 42v11h-1l-7-44-4-13-5-8-6-3-5-2-9-10-5-2-11-1-15 2-14 4-10 7-1 11h-1l-1-11-7-21-1-16v-34l3-19 6-17 6-11 7-9 10-8 14-7z" fill="#E9BDC9"/>
<path transform="translate(1280,665)" d="m0 0h13l25 5 10 5v38l-2 46v13l13 12 1 4-6 4-8 3-1 6-3 78-2 13-5 3-24-4-8-4-1-2v-12l1-10v-16l-3-7-9-4-11-1-5 2-5 10-10 27-2 3h-13l-23-5-1-1 1-11 28-70 3-9v-6l-5-3-4-5v-5l5-3 14-4 11-28 9-23 6-17 7-16z" fill="#AEC4F9"/>
<path transform="translate(703,620)" d="m0 0h32l2 1 3 7 12 57 28 140v11l-8 3-24 1-5-2-3-6-5-30-4-8-7-2h-9l-9 2-3 10-5 35-2 2-7 1h-24l-5-1-1-3v-9l9-64 14-104 4-30 3-7 2-2z" fill="#AEC4F9"/>
<path transform="translate(347,660)" d="m0 0h11l1 4-6 26-12 43-3 11-1 10 4 10 6 8 9 14 20 30 11 17 6 9 13 20 2 4v6l-9 3-17 3h-12l-8-7-15-24-10-15-9-14-3-3h-6l-1 2v13l7 38 2 10v10l-6 3-17 3-8-1-4-8-7-34-10-51-2-2-11-4-3-4 1-5 8-7 1-6-15-75-1-7v-8l4-3 11-3 10-2 5 1 3 3 5 22 4 15 3 6v2l5-3 5-12 8-28 5-13 10-4z" fill="#AEC5FA"/>
<path transform="translate(828,618)" d="m0 0h19l10 2 2 7 1 39 1 5 5-2 7-10 12-22 9-15 3-2h28l8 1-1 7-7 16-13 23-11 21-9 16v11l10 28 14 38 15 40 4 13v6l-8 1h-12l-14-1-6-3-5-6-15-43-8-19-3-4h-5l-2 4-2 21-2 42-2 5-1 1h-20l-10-2-1-2v-43l1-50-1-4-7-3-6-6 1-4 13-8h2v-21l2-60 1-12z" fill="#AEC4F9"/>
<path transform="translate(998,626)" d="m0 0h21l10 3 2 2v22l-4 47-3 27 5 2 8 7 1 4-5 4-10 5-2 17-6 68-2 12-1 1h-16l-13-2-5-3-1-2v-10l7-81v-4l-8-5-5-5v-4l10-6 5-2 4-43 4-44 3-9z" fill="#AEC4F9"/>
<path transform="translate(432,644)" d="m0 0h15l3 5 3 15 10 69 10 67 7 48v12l-7 3-18 2-9-1-3-6-4-24-9-63-9-60-6-43-1-17 2-3z" fill="#AEC4F9"/>
<path transform="translate(952,659)" d="m0 0 1 3 7 9 10 7 4 1v14l-2 19-4 4-8 4-4 8v12l4 7v2l6 2 2 2-1 23-3 36-2 4-9-24-18-49-11-28v-6l11-21 9-16z" fill="#E7BBC8"/>
<path transform="translate(933,636)" d="m0 0h8l2 1-3 10-8 16-14 26-9 17v10l6 17 12 31 16 44 13 36v8l-2 3-12 2h-13l-15-2-6-4-1-4 2-1h23l9-3v-7l-8-24-14-36-10-27-8-22-5-12v-11l14-25 13-24 8-16z" fill="#AEC4F9"/>
<path transform="translate(362,672)" d="m0 0h9l1 4-6 26-8 27-4 16v8l6 11 16 23 14 22 15 23 16 24 9 14 2 4-1 5-5 5-15 4-12 2h-10l-4-2-1-4 9-3 17-4 5-3-1-7-6-11-14-22-16-23-11-17-16-24-9-14-1-2v-7l7-28 11-39z" fill="#AEC5FA"/>
<path transform="translate(667,935)" d="m0 0 9 1 9 7 2-3 1-2 17 2 2 2-1 10-6 34-2 3-12-1-7-3-1-4-5 3h-11l-8-4-7-8-3-8v-8l4-10 8-8 5-2z" fill="#AEC4F9"/>
<path transform="translate(747,635)" d="m0 0 7 1 3 3 5 21 14 67 11 54 8 39 4 21v7l-3 3-7 3-7 1h-17l-5-3-3-4v-3l20-2 7-2 2-4-1-11-7-36-10-46-14-69-6-28z" fill="#AEC5FA"/>
<path transform="translate(1202,685)" d="m0 0 4 2 3 6 1 5v16l-6 39-4 9-6 9-5 7v14l7 57 2 19v13l-2 4h-13l-15-2-12-3-3-4 1-4h30v-17l-4-37-4-35 1-8 4-6 9-12 3-7 7-45z" fill="#AEC5FA"/>
<path transform="translate(616,659)" d="m0 0 7 6 4 7 3 20 2 20v19l-3 11-5 12 1 7 7 19 19 52 5 15v8l-6 3-19 3h-15l-4-5v-4l21-3 6-2v-11l-4-13-14-38-8-22-1-8 2-8 5-10 2-12-1-19-4-39z" fill="#AEC5FA"/>
<path transform="translate(1025,472)" d="m0 0 6 2 5 5-3 6-3 2h-5l-3 9-19 37-8 16-4 9 10-4 21-12 18-11 6-9 5-1 5 4-1 7-3 3h-10l-11 6-20 12-11 6-1 3h22l22-3 7-5 5 1 5 5v6l-5 3h-5l-5-5h-12l-30 3-6 1 13 8 17 9 11-1 5 4-1 7-5 2-7-1-2-8-9-3-21-12-9-5-5 1-11 21-8 16-1 3v8l-3 5-2 1h-6l-1-1v-8l4-4 6-3 9-20 8-15-14 6-12 7-3 7-5 3-5-1-4-5 1-5 3-3 4-1 8 2 11-6 6-5 1-2-31 1-19 2-4 4h-7l-3-2-1-8 5-3h6l3 2v3l36-2 15-2-3-5-10-6-25-13-10-6 3-1 50 25 8 3h2l2-5 11-23 10-19 12-25 1-4-1-6 3-6z" fill="#132743"/>
<path transform="translate(458,658)" d="m0 0h6l4 5 9 59 16 108 3 20v19l-4 5-10 3-7 1h-8l-4-5 1-4 16-3 4-2v-15l-4-29-7-48-8-54-6-44z" fill="#AEC5FA"/>
<path transform="translate(590 1e3)" d="m0 0h7l12 10 5 5v2l4 2 6 6v2l4 1 5 5 15 14 8 7 5 4 3 3 13 10 10 8h-3l-12-8-26-22-14-12-10-9-8-7-12-12-3-2-6 1-33 14-22 10-29 11-25 9-20 6-54 13-22 4-12 1h-32l-15-3-14-5-13-7-12-11-1-4 5 3 3 3 9 6 16 7 18 4h35l35-5 20-5 5-2 21-5 17-5 10-4 16-6 27-9 12-5 13-5 4-3 8-3 4-2h4v-2l13-5z" fill="#BD8D9E"/>
<path transform="translate(968,955)" d="m0 0h14l10 4 7 8 2 7v12l-5 10-8 6-10 3-16-2-8-5-5-6-2-6v-13l4-8 5-5 7-4z" fill="#AEC5FA"/>
<path transform="translate(1132,678)" d="m0 0h11l12 5 4 5 1 3v16l-3 19-4 10-7 6-4 2h-11l-7-3-2-3v-11l5-38 3-9z" fill="#0D2440"/>
<path transform="translate(551,668)" d="m0 0h10l9 3 5 5 3 8 2 15v20l-4 8-5 4-8 3h-7l-5-3-3-6-3-21-1-12v-21z" fill="#0D2440"/>
<path transform="translate(1068,424)" d="m0 0h11l14 1 6 2 10 4 7 3 5 5v4h2l1 3-4-2-9-6-13-4-15-2h-15l-17 2-28 6-36 12-37 14-67 31-19 10-17 8-4-1v-3l8-6 16-8 16-9 20-9 12-6 24-11 14-6 17-6 10-4 30-10 11-3 14-4 23-4z" fill="#BC8C9D"/>
<path transform="translate(401,912)" d="m0 0h2l8 37 3 12 1 2 8-1 47-12 14-7h3l1 5-3 7-13-1-17 4-30 8 3 3 20 8 6 2 15 1 2 1-1 7-3 3-4-1-6-5-9-4-19-7-4-1 7 9 11 12 5 3 5 2 2 5-4 5-4 1-3-3-5-10-9-10-10-9h-2l6 22 5 7v4l-8 1-3-1 2-11-5-24-2-3v-3l-10 1-15 3-10 4-5 4-4-1-1-2v-7l5-1 2 1h10l17-5h3v-2l-10-3-9-3-2 1h-6l-2-1v-7l3-4 6 2 3 5 13 5-4-7-12-12-4-5-8-4-2-2 1-6 3-2 5 1 6 12 22 22h1l-7-30-2-11z" fill="#B98B9C"/>
<path transform="translate(1107,942)" d="m0 0h9l7 2 7 7 3 6v7l-6 4-17 5h-2l3 3h8l12-3 3 3 1 10-9 4-7 2h-13l-10-4-7-7-3-8v-12l4-8 7-7z" fill="#AEC5FA"/>
<path transform="translate(823,954)" d="m0 0h11l9 3 8 10 1 5v7l-3 3-25 2 1 3 8 2 14-1 1 1v10l-4 3-8 2h-8l-10-3-9-6-4-5-2-8v-8l3-9 7-7z" fill="#AEC4F9"/>
<path transform="translate(1339,795)" d="m0 0h7l7 7v7l-7 3-5 1-1 4-4 89-2 5-3 1h-13l-15-3-6-3-2-2-1-7 10 1 13 1 6-2 2-7 1-13 3-77 2-2z" fill="#AEC5FA"/>
<path transform="translate(1039,747)" d="m0 0 7 1 5 5 1 6-15 8-2 16-5 61-2 12-4 6-7 2-16-1-7-3-3-5 1-3 24-1 2-7 5-53 3-34 1-5 11-4z" fill="#AEC5FA"/>
<path transform="translate(1e3 1e3)" d="m0 0h3l2 9 13-1h11l-3 5-8 6-18 6-13 2h-13l-15-2-18-5-13-5-5-1v-1l8-2 11-7 2-3 5 1 10 5 12 3h8l14-4z" fill="#BD8D9E"/>
<path transform="translate(1158,934)" d="m0 0h13l2 6v5l-2 1-16 2v2l13 1 7 3 5 6 1 3v9l-3 6-8 5-8 2h-14l-2-1-1-5 2-7 13-1 3-3-14-2-6-3-3-4-1-4v-8l3-5 5-4z" fill="#AEC4F9"/>
<path transform="translate(876,955)" d="m0 0 11 1 5 2v9l-2 2h-15l1 2 12 5 6 5 1 2v11l-4 6-4 3-5 2h-15l-7-2-2-2v-7l3-3 15 1v-3l-9-3-6-3-4-5-1-3v-8l5-7 5-3z" fill="#AEC5FA"/>
<path transform="translate(915,956)" d="m0 0h18l4 3v9l-1 1h-15l-1 3 9 2 8 4 4 6v9l-3 6-6 5-3 1h-18l-6-1-1-2v-9l1-1h18l-3-3-12-4-5-5-1-2v-12l6-7z" fill="#AEC4F9"/>
<path transform="translate(732,946)" d="m0 0h9l10 2 3 3v7l-3 5h-14l-4 3-1 7 3 5 6 2 7 1 2 6-2 7-5 2h-9l-13-5-7-8-2-5v-14l5-10 8-6z" fill="#AEC4F9"/>
<path transform="translate(775,951)" d="m0 0h17l6 2 1 6-2 6-2 1-13 1-4 4v9l3 3 14 2v10l-4 4-3 1h-8l-10-3-9-7-4-7v-16l6-10 8-5z" fill="#AEC5FA"/>
<path transform="translate(1037,951)" d="m0 0h6l2 3 1 10-2 2-10 3-2 1v14l1 16-7 1h-13l-2-4-3-32v-10l4-2h16l2 5 2 1 1-6z" fill="#AEC4F8"/>
<path transform="translate(561,775)" d="m0 0 5 2 4 10 1 5 2 30 3 30v7l-2 6-10 3h-21l-4-5 1-3 7-2 10-2 5-3v-30l-3-30v-14z" fill="#AEC5FA"/>
<path transform="translate(1120,784)" d="m0 0h5l3 8v13l-4 25-4 29-3 11-3 4h-12l-13-2-6-4-1-1v-5l6-1h15l3-1 4-15 8-53z" fill="#AEC5FA"/>
<path transform="translate(1025,472)" d="m0 0 6 2 5 5-3 6-3 2h-5l-3 9-19 37-8 16-4 9 10-4 21-12 18-11 6-9 5-1 5 4-1 7-3 3h-10l-11 6-20 12-11 6-1 3h22l22-3 7-5 5 1 5 5v6l-5 3h-5l-5-5h-12l-30 3-8 1-1-4-3-1 1-4-3 1-3-2 12-25 10-19 12-25 1-4-1-6 3-6z" fill="#343B54"/>
<path transform="translate(1065,948)" d="m0 0h5l1 1 4 30 7 3 2 3v8l-4 3-3 1h-12l-8-5-4-10-2-17v-14l5-2z" fill="#AEC5FA"/>
<path transform="translate(1258,840)" d="m0 0h8l8 2 4 4v6l-9 1-5 3-7 19-7 14-6 5h-13l-17-4v-10l20 2 7-2 6-12 6-17 4-10z" fill="#AEC5FA"/>
<path transform="translate(322,824)" d="m0 0 4 1 7 9 3 8 8 43v14l-4 3-10 3h-15l-2-4 1-4 12-4 4-3 1-4-1-15-6-31z" fill="#AEC5FA"/>
<path transform="translate(861,773)" d="m0 0 5 5 3 8 1 6-1 33-1 21-2 6-3 2h-18l-7-1-5-6 2-3 16-2 5-5 2-12 2-48z" fill="#AEC5FA"/>
<path transform="translate(713,797)" d="m0 0h13l3 3 1 5-2 2-8 3-2 3-4 28-3 11-8 4-10 1h-15l-1-1v-7l1-1 17-2 5-3 3-10 4-30 3-5z" fill="#AEC5FA"/>
<path transform="translate(1036,643)" d="m0 0 8 4 1 1v15l-5 65-7-1-4-3v-9l5-53z" fill="#AEC5FA"/>
<path transform="translate(1278,652)" d="m0 0h23l16 3 13 5 8 7 5 7v2l-3 1v-2l-4-2-5-4v-2l-5-2-8-4-14-3-8-1h-11l-7 2-7 7-7 11-11 29h-2l-1 6-10 26-5 8-3 2h-4v-2l5-5 11-27 13-33 8-18 8-9z" fill="#060A16"/>
<path transform="translate(1162,927)" d="m0 0 12 1 5 5 3 17 5 12v9l-5 10-7 6-11 4-13 1h-13l-10 4-7 2h-18l-7-6 2-1 8 2h11l12-3 15-4h15l8-1v-2l10-5 3-6h2l-1-11-4-8v-3l-3 1-4-1h-11v-2l3-1h12l1-1-1-9-1-6-19 1-9 5h-2l-2 4-2 1 1-8 11-5z" fill="#080C19"/>
<path transform="translate(1334,690)" d="m0 0 4 1 4 4v46l-2 34-5-2-4-3v-30l2-48z" fill="#AEC5FA"/>
<path transform="translate(401,912)" d="m0 0h2l8 37 2 12h-6l2 6 2 2-23 5-10 4-5 4-4-1-1-2v-7l5-1 2 1h10l17-5h3v-2l-10-3-9-3-2 1h-6l-2-1v-7l3-4 6 2 3 5 13 5-4-7-12-12-4-5-8-4-2-2 1-6 3-2 5 1 6 12 22 22h1l-7-30-2-11z" fill="#BA8B9D"/>
<path transform="translate(1155,503)" d="m0 0 1 4-7 20-14 29-10 17-12 17-13 19-6 10-1 3 3 1-6 2-6 10-2 6h-5l-13 9h-4l1-4h2l12-15h2l2-5 6-7 11-14 9-11 10-14 9-14 9-16 7-12 9-20z" fill="#BD8D9E"/>
<path transform="translate(769,901)" d="m0 0 7 1 18 18 8 7 5 5 12 11 2 1 16 2v1h-12l-10 1 1-4-5-5-11-10-8-7-13-13-5-3-6 2-17 11-11 8-5 6 4 4v2l-13 2h-9l-2-3v-4l-21-3-22-3h-9l-7 1 2-2 4-1h13l25 4 14 2h6l10-6 5-2v-2l16-10 10-6 7-4z" fill="#BD8D9E"/>
<path transform="translate(946 1e3)" d="m0 0 2 1v2l9 2 9 3h18l11-3 4-3 4 1v5h12v3l-14 4-5 1-15 1h-9l-14-2-4-1-13-3-3-2 1-4z" fill="#E6BECC"/>
<path transform="translate(1136,683)" d="m0 0 9 1 2 1-3 9-4 22-3 22-1 1-8-1-1-1 1-16 5-36z" fill="#AEC5FA"/>
<path transform="translate(1354,787)" d="m0 0 5 1 7 9 2 6-1 10-7 8-5 4-2 9-2 62-2 12-3 6h-3l3-16 2-36 1-46 4-2 2 1 4-2 2-4v-11l-5-6-2-2z" fill="#080C19"/>
<path transform="translate(549,674)" d="m0 0h12l1 4-1 3v17l2 22v8l-1 1h-6l-3-7-3-22-2-25z" fill="#AEC5FA"/>
<path transform="translate(910,563)" d="m0 0h6l3 2v3l40-2v1l13-1 4 3v2h4l-1 3v-2l-14 6-12 7-3 7-5 3-5-1-4-5 1-5 3-3 4-1 8 2 11-6 6-5 1-2-31 1-19 2-4 4h-7l-3-2-1-8z" fill="#B995AD"/>
<path transform="translate(714,717)" d="m0 0 4 1 3 5 4 16 1 6v8l-4 2h-12l-2-5 1-16 3-13z" fill="#0D2440"/>
<path transform="translate(1281,763)" d="m0 0h5l2 3v24l-1 9-1 1h-10l-6-2-1-5 9-25z" fill="#071224"/>
<path transform="translate(638,972)" d="m0 0 3 4 7 8 5 4 9 3 39 6h4l3-6 5 2 4 4 10 4 5 1h15l9-3 5 1 8 4 12 3h8l9-2 3-2 7 1 10 5 9 2h11l8-3 8 1 16 4v1h-8l-10-3h-7l-6 2h-14l-10-2-10-5-5 1-9 2h-13l-14-4-6-3-5 2-3 1h-20l-17-5-4-2h-2l-1 3-8-1-21-4-19-3-8-4-8-7-4-7z" fill="#BA8B9C"/>
<path transform="translate(275,660)" d="m0 0h8l2 1v2l-22 3-13 5-3 3h-2v21l5 23 2 12 1 15 2 3v13l-2 1-5-25-7-36-1-6v-13l2-8 5-5 6-4 16-4z" fill="#0A0E1B"/>
<path transform="translate(1177,636)" d="m0 0 4 1 11 6 9 8 6 9 5 10 6 8 5 13 1 7v20l-2 17-2 5-3 1-1-3 3-26v-16l-2-9-5-10-7-10-7-11-7-8-9-7-4-2z" fill="#090C1A"/>
<path transform="translate(1345,682)" d="m0 0h4l6 10 1 3v50l-2 37-4-2v-80l-2-9-4-8z" fill="#050814"/>
<path transform="translate(760,559)" d="m0 0 10 5 18 13 10 9 10 8 8 7 1 2 4 2-5 2-5-6-11-9-12-11-14-9-9-5-6 1-11 6-17 12-14 8h-3l5-5 10-8 13-9 11-7 3-1v-2h4z" fill="#BE8E9F"/>
<path transform="translate(1025,472)" d="m0 0 6 2 5 5-3 6-3 2h-5l-3 9-19 37-8 16-3 7-4 1 1-5 9-19 10-19 12-25 1-4-1-6 3-6z" fill="#2B354F"/>
<path transform="translate(702,541)" d="m0 0h19l15 4 9 4 1 3-2 3-5-1-8-4-9-2h-19l-10 4-5 5-6 9-4 9h-1l1-10 5-10 5-6 10-7z" fill="#BE8E9F"/>
<path transform="translate(1328,670)" d="m0 0 7 6-3 2 2 14-2 48h-2l-1-4-1 15h-1v-76l-2-1v-2h3z" fill="#0C233F"/>
<path transform="translate(1055,923)" d="m0 0h9l5 5v9l-4 4-9 1-6-3-2-3v-8l4-4z" fill="#AEC5FA"/>
<path transform="translate(1120,779)" d="m0 0m-2 1 3 1-4 23-6 41-1 5h-2l-1-9v-2l1-15 5-34 4-9z" fill="#0B1F39"/>
<path transform="translate(404,682)" d="m0 0 2 1 2 12 1 2-1 2 2 1 2 21 2 5 1 17 3 16 2 20 2 12v20l-2-2-2-23-5-36-7-46-2-10z" fill="#0A0E1C"/>
<path transform="translate(1047,521)" d="m0 0 5 1 4 3-1 7-3 3h-10l-11 6-20 12-11 6-3-1v-2l15-8 15-9 13-8 6-9z" fill="#2B3650"/>
<path transform="translate(972,969)" d="m0 0 7 1 4 6v8l-5 5-6 1-5-3-2-6 1-8 3-3z" fill="#0D2440"/>
<path transform="translate(337,925)" d="m0 0 4 1-12 22-9 14-8 19-4 12-2 1v-7l5-18 4-7 2-4h2l1-6 1-2h2l1-5 4-7z" fill="#BD8D9E"/>
<path transform="translate(672,951)" d="m0 0 7 1 4 5v7l-5 5-7 1-5-3-1-2v-8l3-5z" fill="#0D2440"/>
<path transform="translate(1282,906)" d="m0 0 4 2 8 6 11 4 7 1h22l9-2-2 4-5 3-6 1h-11l-20-3-10-5-6-7z" fill="#0A0C19"/>
<path transform="translate(484,943)" d="m0 0h3l1 5-3 7-13-1-17 4-23 6-6-1v-2l44-11z" fill="#353B55"/>
<path transform="translate(1071,870)" d="m0 0 4 2 6 7 13 3 6 1h18l4-3h2l-1 5-6 3h-13l-14-1-16-6-5-6 1-4z" fill="#0A0D1A"/>
<path transform="translate(1105,935)" d="m0 0h14l9 3 1 4 3 1v2l-3 1-6-4-3-1v-2l-13 1-10 4-8 6-5 10h-1v-8l3-5 9-8z" fill="#090D1A"/>
<path transform="translate(1048,965)" d="m0 0h1l2 12v7l1 4h2l3 6 3 4 4 1h9l12-4h2l1-3 3 1-3 7-13 4h-12l-6-3-5-5-4-15-1-12z" fill="#070B18"/>
<path transform="translate(1260,834)" d="m0 0 11 1 7 3-1 3-19-2-3 10-6 16-1 3h-2l-1-10 7-18 4-5z" fill="#08162A"/>
<path transform="translate(384,676)" d="m0 0h1v10l-6 21-7 26-2 9h-3v-7l4-15 2-9 5-17 2-7z" fill="#090C1A"/>
<path transform="translate(1324,841)" d="m0 0h2l1 36-1 13-3 6-3 2h-5v-2l5-3 2-37 1-1z" fill="#0A1A31"/>
<path transform="translate(485,644)" d="m0 0h2l3 37 2 20v11h-1l-7-44-4-13-2-6 5 2z" fill="#AFC0F2"/>
<path transform="translate(1144,879)" d="m0 0h2l1 4 5 4v2l19 4 26 3v2l-2 1-24-1-18-4-10-9-2-5z" fill="#0A0E1C"/>
<path transform="translate(638,972)" d="m0 0 3 4 7 8 5 4 9 3 39 6h4l3-6 5 2 4 4v2l2 1-4 1-4-3h-4l-1 3-8-1-21-4-19-3-8-4-8-7-4-7z" fill="#B992A7"/>
<path transform="translate(910,563)" d="m0 0h6l3 2v3h22l-2 2-19 2-4 4h-7l-3-2-1-8z" fill="#0C0F1D"/>
<path transform="translate(1282,767)" d="m0 0h2v18l1-5h1l1 19-5-1h-5l-2-3 1-8 2-5v-8l1-2h2z" fill="#0D2440"/>
<path transform="translate(865,634)" d="m0 0 7 3 2 3v8l-8 15-2 1v-29z" fill="#AEC5FA"/>
<path transform="translate(265,818)" d="m0 0h2l8 32 1 11 3 9v8l-2 4-5-22-7-35z" fill="#0B0E1C"/>
<path transform="translate(295,687)" d="m0 0h6l3 3 1 3v10l-4 12-3-4-3-14z" fill="#AEC5FA"/>
<path transform="translate(735,566)" d="m0 0 3 1-5 7 7-2-1 3-11 8-12 9-3-2 2-5 6-4 4-6z" fill="#ECC7D1"/>
<path transform="translate(994,612)" d="m0 0h26l11 3-2 2-10-1-16-2-4 1-8 3-8 19h-2v-9l3-8 8-7z" fill="#0C0F1C"/>
<path transform="translate(252,775)" d="m0 0 1 4-3 14h3v2l3 1 1 3v4l1 4-5-2-6-5-3-7 1-10 3-5z" fill="#0C0E1B"/>
<path transform="translate(1054,916)" d="m0 0h10l6 4 5 6 1 2v16l-2 3-2-1-1-6v-8l-2-6-5-4-11-2-2-2z" fill="#050916"/>
<path transform="translate(789,741)" d="m0 0 6 5 4 22v7l-2 1-3-3-3-9-3-22z" fill="#080B18"/>
<path transform="translate(922,533)" d="m0 0 4 1 39 19 13 6-1 4-9 2 2-1-3-5-10-6-25-13-10-6z" fill="#3D4059"/>
<path transform="translate(1246,709)" d="m0 0 3 3-3 11-6 15-5 8-3 2h-4v-2l5-5 11-27z" fill="#070C1B"/>
<path transform="translate(943,580)" d="m0 0 6 1 2 3v7l-6 4-5-1-4-5 1-5 3-3z" fill="#090C18"/>
<path transform="translate(906,520)" d="m0 0 6 1 5 5 1 5-7 4-6-1-3-4 3-9z" fill="#0C0E1A"/>
<path transform="translate(1033,584)" d="m0 0 7 1 3 3-1 7-5 2-7-1-3-10z" fill="#0E0E1A"/>
<path transform="translate(413,743)" d="m0 0h2l3 16 2 20 2 12v20l-2-2-2-23-5-36z" fill="#0F1323"/>
<path transform="translate(400,968)" d="m0 0 4 1-7 3-12 3-8 4-4 3-4-1-1-2v-7l5-1 2 1h10z" fill="#524D64"/>
<path transform="translate(366,748)" d="m0 0 1 2h2l8 15 11 15-1 3-1-2-4-2-12-16-4-7-1-5z" fill="#0D0E1B"/>
<path transform="translate(1065,774)" d="m0 0h2v8l-4 24-1 3h-2v-17l2-16z" fill="#090C18"/>
<path transform="translate(275,660)" d="m0 0h8l2 1v2l-22 3-13 5-3 3-5 2 2-5 9-6 16-4z" fill="#131422"/>
<path transform="translate(1039,942)" d="m0 0 2 1-7 2-33 2-2 5-3 2-12-6-10-2v-1h8l15 3 5-3 5-1 26-1z" fill="#B990A4"/>
<path transform="translate(1254,900)" d="m0 0 1 3-6 4-4 1h-15l-8-2-2-3 2-1h7l11 2 7-1 5-2 1 1z" fill="#060B19"/>
<path transform="translate(417,980)" d="m0 0 2 1 5 19 5 7v4l-8 1-3-1 2-11-3-15z" fill="#111525"/>
<path transform="translate(375,922)" d="m0 0 5 1 6 12 1 3-5-1-9-5-2-2 1-6z" fill="#29344F"/>
<path transform="translate(1162,927)" d="m0 0 12 1-4 2-13 2-4 1-8 4h-2l-2 4-2 1 1-8 11-5z" fill="#0A0D1A"/>
<path transform="translate(1047,521)" d="m0 0 5 1 4 3-1 7-3 3h-7l-1-3 2-7z" fill="#080C19"/>
<path transform="translate(1050,558)" d="m0 0 9 1 1 1v6l-5 3h-5l-3-2v-8z" fill="#11121F"/>
<path transform="translate(379,948)" d="m0 0 6 2 3 5 5 3v1h-7l-2 1h-6l-2-1v-7z" fill="#373D56"/>
<path transform="translate(884,849)" d="m0 0 4 1 8 9-1 4-6-2h-6l-2-1v-6z" fill="#F2EFF4"/>
<path transform="translate(1033,982)" d="m0 0h2l2 3 2 8v11l-2 2h-13l-2-3 9-1 3-3z" fill="#050713"/>
<path transform="translate(462,952)" d="m0 0 3 1 1 2-34 9-6-1v-2z" fill="#3C4059"/>
<path transform="translate(1045,779)" d="m0 0h2l1 2v28l-1 4h-4l1-16z" fill="#070A16"/>
<path transform="translate(905,679)" d="m0 0h2v4h-2l-2 8-3 3-1 4-2 1-2 6v11l-1 2h-2l-1-3v-11l13-24z" fill="#09182D"/>
<path transform="translate(962,610)" d="m0 0h2v7l-3 5-2 1h-6l-1-1v-8l1-2 3 1z" fill="#0E1321"/>
<path transform="translate(401,912)" d="m0 0h2l8 37-1 3-3-5-7-28z" fill="#B88B9D"/>
<path transform="translate(1273,781)" d="m0 0 5 1-2 9 1 7 8-1 1 3h-10l-6-2-1-5z" fill="#0C213C"/>
<path transform="translate(535,930)" d="m0 0h2l7 8 11 14 5 7v2h-4l-9-13-10-13z" fill="#C090A0"/>
<path transform="translate(1042,975)" d="m0 0 4 2 2 9v4l-5 1-2 5h-1l-1-19z" fill="#B0B8E5"/>
<path transform="translate(1025,472)" d="m0 0 6 2 5 5-2 5-5-1-4-1v-2l-4 1v-5z" fill="#0F111F"/>
<path transform="translate(444,997)" d="m0 0 8 1 3 4-2 5-4 3-4-1-1-2z" fill="#3C415A"/>
<path transform="translate(340,645)" d="m0 0h20l8 5v2l-4 2-1-3-5-1-2-1-16-1h-5l1-2z" fill="#0A0C19"/>
<path transform="translate(460,980)" d="m0 0h9l2 1-1 7-3 3-4-1-4-4z" fill="#142640"/>
<path transform="translate(407,960)" d="m0 0 7 1 1 2 6 2-1 6-4 3-1-2 1-3-7-1-3-5z" fill="#132843"/>
<path transform="translate(492,884)" d="m0 0 5 1-5 4-13 3h-15v-2l14-2z" fill="#080B18"/>
<path transform="translate(978,574)" d="m0 0 3 1-8 15-8 16-1 4-9 4-1-3 8-4 9-20z" fill="#47465F"/>
<path transform="translate(356,683)" d="m0 0 1 4-3 10-2 12-4 14h-2l-2 8-1-4 11-39z" fill="#060D1C"/>
<path transform="translate(987,556)" d="m0 0h4v2l6-1 2 4v1l13 1v1l-13 1 4 2-8 1-1-4-3-1 1-4-3 1-3-2z" fill="#B88C9E"/>
<path transform="translate(1260,834)" d="m0 0 11 1 7 3-1 3-8-1h-12l-2-2 2-2h3z" fill="#060D1C"/>
<path transform="translate(1281,776)" d="m0 0h1v19l-4 1-3-1 1-8 4-9z" fill="#AEC5FA"/>
<path transform="translate(923,949)" d="m0 0h9l4 1v2l-4 1-14 1-11 1 2-2h3v-2z" fill="#040611"/>
<path transform="translate(644,868)" d="m0 0h9l2 2-16 4h-15v-1l7-2 12-2z" fill="#090C18"/>
<path transform="translate(661,693)" d="m0 0h1l-1 15-3 20-2-4-3-1 2-5 3-9 2-14z" fill="#B4ACD2"/>
<path transform="translate(638,972)" d="m0 0 3 4 7 8 5 4 9 3 15 3v1h-8l-14-3-9-6-6-7-2-4z" fill="#BB8B9C"/>
<path transform="translate(1054,699)" d="m0 0h2v19l-2 4-2-1-1-9 2-12z" fill="#090B18"/>
<path transform="translate(998,570)" d="m0 0 5 2 22 12 2 1-1 3-16-8-12-7z" fill="#494760"/>
<path transform="translate(1178,766)" d="m0 0 2 1-3 3v9h-3v16l-2-1v-21l4-6z" fill="#071223"/>
<path transform="translate(910,563)" d="m0 0h6l3 2v3h22l-2 2-19 2-2 1-3-7-5-2z" fill="#313953"/>
<path transform="translate(765,940)" d="m0 0 17 1-4 2-13 4-7-1-4-4 10 2z" fill="#B999B2"/>
<path transform="translate(972,856)" d="m0 0 4 4v6l-3 2h-8l6-11z" fill="#F1EEF5"/>
<path transform="translate(1328,670)" d="m0 0 7 6-3 2 1 13-4-1v-15l-4-1v-2h3z" fill="#040713"/>
<path transform="translate(905,521)" d="m0 0 2 2v6l3 1h-2v2l4-2h4v-2h2v3l-7 4-6-1-3-4z" fill="#1D2C47"/>
<path transform="translate(883,1094)" d="m0 0 1 3-8 16-10 11-4 1 6-8 7-8 6-10z" fill="#C596A6"/>
<path transform="translate(1110,954)" d="m0 0 6 1 1 4-8 4-5-1 1-4z" fill="#0B1D35"/>
<path transform="translate(999,612)" d="m0 0h21l11 3-2 2-10-1-16-2-4-1z" fill="#050916"/>
<path transform="translate(1256,835)" d="m0 0 4 1-4 2 2 3-5 12-3-1v-8l5-8z" fill="#0C213C"/>
<path transform="translate(805,932)" d="m0 0 4 2 10 9 2 1 16 2v1h-12l-10 1 1-4-5-5-6-5z" fill="#BE8E9F"/>
<path transform="translate(1057,655)" d="m0 0 3 3v13l-1 7h-2l-1-2v-11z" fill="#070B18"/>
<path transform="translate(1328,716)" d="m0 0 2 4 1 8v12l-2-4-1 15h-1v-21z" fill="#040611"/>
<path transform="translate(827,966)" d="m0 0h6l3 2-1 4-11 1v-5z" fill="#0D2440"/>
<path transform="translate(413,743)" d="m0 0h2l3 16v14l-2-2-3-21z" fill="#111423"/>
<path transform="translate(706,867)" d="m0 0 3 2h-3v2h-14l-10-2v-1z" fill="#080D1B"/>
<path transform="translate(1110,624)" d="m0 0h18l8 3v1l-11 1-6-2-9-2z" fill="#070A16"/>
<path transform="translate(708,991)" d="m0 0 5 2 4 4v2l2 1-4 1-4-3-6 1 2-6z" fill="#B79AB4"/>
<path transform="translate(369,971)" d="m0 0 6 1 2 1-2 5-2 2-5-1v-7z" fill="#0C1120"/>
<path transform="translate(716,736)" d="m0 0 3 2 1 11h-5l-1-1v-7z" fill="#AEC5FA"/>
<path transform="translate(662,1064)" d="m0 0 5 2 11 9 9 7h-3l-12-8-10-8z" fill="#C394A4"/>
<path transform="translate(417,980)" d="m0 0 2 1 5 19 3 5-7-2-2-14z" fill="#524D64"/>
<path transform="translate(375,922)" d="m0 0 5 1-1 5-5 4-3-2 1-6z" fill="#0F1322"/>
<path transform="translate(410,721)" d="m0 0h2l2 5 1 14-1 3h-2l-2-14z" fill="#0B0F1D"/>
<path transform="translate(1287,661)" d="m0 0h15l12 2v1l-14-1-2-1v2l9 1-1 2-13-2 4-1-4-1-7 1z" fill="#040611"/>
<path transform="translate(970,572)" d="m0 0 3 1-9 6-11 6-2 4-2-7 6-1 12-8z" fill="#6F5E74"/>
<path transform="translate(484,943)" d="m0 0h3l1 5-2 5-6-1-1-3 3-1v-4z" fill="#1A1927"/>
<path transform="translate(1e3 1e3)" d="m0 0h3l1 6h-5l-6 4h-6v-2l9-4z" fill="#B990A5"/>
<path transform="translate(963,791)" d="m0 0 2 4-1 12-2 3-2-5v-11z" fill="#EFEAF1"/>
<path transform="translate(1048,770)" d="m0 0h7l2 1v2l-6 3h-7l1-4z" fill="#040815"/>
<path transform="translate(957,1008)" d="m0 0 14 3h8l8-1 1 2-4 1h-19l-8-3z" fill="#BB8B9C"/>
<path transform="translate(1162,927)" d="m0 0 12 1-4 2-13 2-3-1 1-3z" fill="#161623"/>
<path transform="translate(769,640)" d="m0 0 3 1 3 10v8l-3-3-2-12z" fill="#090E1C"/>
<path transform="translate(943,580)" d="m0 0 6 1 2 3v7l-3 1 1-4-2-4h-7l-3 2 2-4z" fill="#24324C"/>
<path transform="translate(439,958)" d="m0 0 3 1 1 2-11 3-6-1v-2z" fill="#41425B"/>
<path transform="translate(1021,562)" d="m0 0 3 1-2 2-11 1h-12l-1-2 14-1z" fill="#353C55"/>
<path transform="translate(321,651)" d="m0 0h2l-1 4-7 7-5 1 6-7z" fill="#040815"/>
<path transform="translate(962,946)" d="m0 0h3v2l-10 4-4 2h-6l-1-2 8-2z" fill="#BA8EA2"/>
<path transform="translate(955,566)" d="m0 0 4 1-1 2h-17l-6-1v-1z" fill="#B6899C"/>
<path transform="translate(1048,965)" d="m0 0h1l2 12v9l-2-1-2-16z" fill="#040611"/>
<path transform="translate(814,851)" d="m0 0 4 1-1 8-4 1h-3l2-4z" fill="#EDEEF8"/>
<path transform="translate(1284,776)" d="m0 0 3 1v15h-1l-1-7-1 7h-1v-15z" fill="#040611"/>
<path transform="translate(370,729)" d="m0 0h2l-1 9-1 4h-3v-7z" fill="#0E1221"/>
<path transform="translate(1012,578)" d="m0 0 5 2 10 5-1 3-12-6z" fill="#524D64"/>
<path transform="translate(378,951)" d="m0 0 4 1 1 1v5h-5l-2-2v-3h2z" fill="#040814"/>
<path transform="translate(974,558)" d="m0 0 4 1-1 4-9 2 2-1-1-4z" fill="#B990A5"/>
<path transform="translate(957,801)" d="m0 0h3l2 5 2 1-1 9-2-3-4-10z" fill="#C4B2CF"/>
<path transform="translate(515,903)" d="m0 0 3 3 2 5 4 1 4 8-4-2-9-12z" fill="#C596A5"/>
<path transform="translate(1273,781)" d="m0 0 5 1-1 5-2 2-4 2 1-7z" fill="#0A1B33"/>
<path transform="translate(951,628)" d="m0 0h3l3 6v7l-2 1-1-4z" fill="#040916"/>
<path transform="translate(893,704)" d="m0 0 2 1v11l-1 2h-2v-13z" fill="#040713"/>
<path transform="translate(1033,584)" d="m0 0h5l-3 1-1 3h-3l-1 6-2-4-1-4z" fill="#162945"/>
<path transform="translate(406,937)" d="m0 0h2l3 12-1 3-3-5z" fill="#524D64"/>
<path transform="translate(1057,856)" d="m0 0 4 1 2 4h2v3l-4-1-4-4z" fill="#0B0F1D"/>
<path transform="translate(1155,503)" d="m0 0 1 4-4 12-2-1 1-6z" fill="#C292A2"/>
<path transform="translate(377,974)" d="m0 0h4l-1 3-7 5-4-1 4-2z" fill="#2D3751"/>
<path transform="translate(1322,890)" d="m0 0 2 1-1 5-3 2h-5v-2l5-3z" fill="#040611"/>
<path transform="translate(1273,796)" d="m0 0h4v2l8-1 1 3h-10l-3-2z" fill="#060F1F"/>
<path transform="translate(1277,774)" d="m0 0 2 2v6h-2l-1 2-2-2 1-6z" fill="#060E1E"/>
<path transform="translate(1050,554)" d="m0 0 5 1 4 4h-12z" fill="#28344E"/>
<path transform="translate(873,1113)" d="m0 0 1 2-7 8-5 2 6-7z" fill="#C798A7"/>
<path transform="translate(446 1e3)" d="m0 0h5l1 5h-6l-1-4z" fill="#040611"/>
<path transform="translate(754,942)" d="m0 0 13 2v2l-7 1-6-4z" fill="#B79BB7"/>
<path transform="translate(905,679)" d="m0 0h2v4h-2l-2 8-3 1 2-8z" fill="#060F20"/>
<path transform="translate(1214,790)" d="m0 0 3 1-4 11-2-2 2-9z" fill="#0B0F1D"/>
<path transform="translate(1097,624)" d="m0 0h12l-4 4-7-2z" fill="#040611"/>
<path transform="translate(709,995)" d="m0 0 7 1 1 3 2 1-4 1-4-3h-3z" fill="#B0B9E6"/>
<path transform="translate(1162,947)" d="m0 0h7l1 3h-11v-2z" fill="#040611"/>
<path transform="translate(1e3 1e3)" d="m0 0h3l1 6-6-1-2 1 2-4z" fill="#B69DBA"/>
<path transform="translate(697,997)" d="m0 0 10 1-1 3-8-1-2-2z" fill="#BA8D9F"/>
<path transform="translate(906,1007)" d="m0 0h7l2 1-1 3-7-1z" fill="#040611"/>
<path transform="translate(1273,887)" d="m0 0 6 12-4-2-4-5z" fill="#060C1B"/>
<path transform="translate(783,703)" d="m0 0 3 1v9l-2 2-1-8z" fill="#040814"/>
<path transform="translate(1040,586)" d="m0 0 3 2-1 7-4 1z" fill="#4D4A62"/>
<path transform="translate(879,949)" d="m0 0h7l1 3h-9l-1-2z" fill="#040611"/>
<path transform="translate(835,845)" d="m0 0h7l1 3-5 1-3-1z" fill="#FEFEFE"/>
<path transform="translate(963,606)" d="m0 0 1 4-9 4-1-3 8-4z" fill="#27334E"/>
<path transform="translate(739,563)" d="m0 0 2 1-2 1z" fill="#EABECA"/>
<path transform="translate(731,856)" d="m0 0" fill="#EABECA"/>
<path transform="translate(744,560)" d="m0 0 2 1z" fill="#EABECA"/>
<path transform="translate(920,532)" d="m0 0 2 1z" fill="#BB8B9C"/>
<path transform="translate(706,599)" d="m0 0" fill="#BB8B9C"/>
<path transform="translate(707,598)" d="m0 0" fill="#EABECA"/>
<path transform="translate(712,595)" d="m0 0" fill="#EABECA"/>
<path transform="translate(738,565)" d="m0 0" fill="#EABECA"/>
<path transform="translate(919,531)" d="m0 0" fill="#BB8B9C"/>
</svg>
